<svg xmlns="http://www.w3.org/2000/svg" viewBox="0 0 522 416" fill="none" stroke="#FCFCFC	" stroke-width="0.5">
<path 
  d="M 273,398 L 272,399 L 271,399 L 272,400 L 280,400 L 280,399 L 277,399 L 276,398 Z" 
  class="draw-path" 
/>

<path className="draw-path" d="M 273,398 L 272,399 L 271,399 L 272,400 L 280,400 L 280,399 L 277,399 L 276,398 Z" />
<path className="draw-path" d="M 263,398 L 262,399 L 262,400 L 263,400 L 264,401 L 265,401 L 266,400 L 267,400 L 268,399 L 267,398 Z" />
<path className="draw-path" d="M 251,397 L 249,399 L 249,400 L 253,400 L 254,399 L 257,399 L 257,398 L 256,397 Z" />
<path className="draw-path" d="M 129,397 L 127,399 L 127,401 L 128,401 L 129,400 L 134,400 L 134,398 L 133,398 L 132,397 Z" />
<path className="draw-path" d="M 242,393 L 241,394 L 241,396 L 238,399 L 232,399 L 232,400 L 234,400 L 235,401 L 239,401 L 240,400 L 241,400 L 242,399 Z" />
<path className="draw-path" d="M 35,393 L 33,395 L 33,399 L 34,400 L 35,400 L 36,399 L 36,394 Z" />
<path className="draw-path" d="M 255,384 L 258,387 L 259,387 L 260,388 L 264,388 L 265,389 L 268,389 L 269,390 L 269,391 L 268,392 L 269,392 L 270,391 L 271,392 L 271,395 L 273,395 L 273,394 L 274,393 L 279,393 L 280,394 L 281,394 L 284,397 L 284,398 L 286,400 L 288,400 L 289,401 L 294,401 L 295,400 L 301,400 L 300,400 L 299,399 L 297,399 L 296,398 L 295,398 L 294,397 L 292,397 L 291,396 L 289,396 L 288,395 L 286,395 L 285,394 L 284,394 L 283,393 L 281,393 L 280,392 L 278,392 L 277,391 L 275,391 L 274,390 L 272,390 L 271,389 L 269,389 L 268,388 L 266,388 L 265,387 L 263,387 L 262,386 L 260,386 L 259,385 L 256,385 Z" />
<path className="draw-path" d="M 173,383 L 173,384 L 172,385 L 172,386 L 171,387 L 171,388 L 170,389 L 170,390 L 169,391 L 169,396 L 170,396 L 172,398 L 175,398 L 175,397 L 176,396 L 176,390 L 175,390 L 173,388 L 173,387 L 174,386 L 177,386 L 178,387 L 174,383 Z" />
<path className="draw-path" d="M 37,380 L 36,381 L 36,382 L 35,383 L 35,389 L 35,388 L 36,387 L 36,385 L 37,384 Z" />
<path className="draw-path" d="M 174,378 L 174,379 L 180,385 L 180,386 L 181,387 L 181,388 L 180,389 L 180,391 L 179,392 L 179,394 L 178,395 L 178,400 L 179,400 L 181,398 L 181,397 L 182,396 L 182,395 L 183,394 L 183,392 L 184,391 L 184,390 L 186,388 L 189,391 L 189,392 L 188,393 L 188,394 L 187,395 L 187,396 L 184,399 L 184,400 L 204,400 L 205,401 L 206,401 L 207,400 L 228,400 L 229,399 L 222,399 L 221,398 L 221,397 L 201,397 L 200,396 L 195,396 L 194,395 L 193,395 L 190,392 L 190,391 L 188,389 L 188,388 L 181,381 L 180,381 L 178,379 L 176,379 L 175,378 Z" />
<path className="draw-path" d="M 455,370 L 455,371 L 458,374 L 459,374 L 460,375 L 461,375 L 463,377 L 464,377 L 466,379 L 467,379 L 469,381 L 470,381 L 471,382 L 472,382 L 474,384 L 475,384 L 477,386 L 478,386 L 482,390 L 482,391 L 483,392 L 481,394 L 479,394 L 478,395 L 476,395 L 475,396 L 472,396 L 471,397 L 467,397 L 466,398 L 463,398 L 462,397 L 452,397 L 451,398 L 422,398 L 421,397 L 413,397 L 412,398 L 409,398 L 408,399 L 405,399 L 403,397 L 400,397 L 399,398 L 373,398 L 372,397 L 360,397 L 359,396 L 357,396 L 356,395 L 353,395 L 352,396 L 351,396 L 350,397 L 343,397 L 342,398 L 326,398 L 325,397 L 322,397 L 321,396 L 312,396 L 311,395 L 302,395 L 303,396 L 303,397 L 304,398 L 307,398 L 309,400 L 392,400 L 393,401 L 409,401 L 410,400 L 497,400 L 497,399 L 474,376 L 473,376 L 472,375 L 470,377 L 469,377 L 468,378 L 467,377 L 467,374 L 465,374 L 464,373 L 463,373 L 462,372 L 460,372 L 459,371 L 457,371 L 456,370 Z" />
<path className="draw-path" d="M 410,369 L 409,370 L 408,370 L 407,371 L 406,371 L 406,372 L 405,373 L 405,376 L 406,377 L 406,376 L 407,375 L 407,374 L 409,372 L 409,371 L 410,370 L 411,370 Z" />
<path className="draw-path" d="M 106,369 L 105,370 L 105,377 L 106,378 L 107,377 L 107,372 L 106,371 Z" />
<path className="draw-path" d="M 20,368 L 20,370 L 19,371 L 19,376 L 18,377 L 18,380 L 19,381 L 19,387 L 20,388 L 20,392 L 21,393 L 21,396 L 22,397 L 22,398 L 23,399 L 23,400 L 25,402 L 26,402 L 26,401 L 25,400 L 25,398 L 24,397 L 24,395 L 23,394 L 23,392 L 22,391 L 22,388 L 21,387 L 21,385 L 20,384 Z" />
<path className="draw-path" d="M 437,363 L 436,364 L 434,364 L 433,365 L 432,365 L 431,366 L 430,366 L 429,367 L 428,367 L 427,368 L 426,368 L 424,370 L 423,370 L 413,380 L 413,381 L 411,383 L 411,384 L 410,385 L 410,386 L 409,387 L 409,388 L 408,389 L 409,389 L 412,386 L 413,386 L 420,379 L 421,379 L 425,375 L 426,375 L 428,373 L 429,373 L 431,371 L 432,371 L 433,370 L 435,370 L 436,369 L 438,369 L 439,368 L 444,368 L 445,367 L 451,367 L 449,365 L 448,365 L 447,364 L 446,364 L 445,363 Z" />
<path className="draw-path" d="M 453,355 L 453,356 L 456,359 L 456,360 L 457,360 L 460,363 L 458,361 L 458,360 L 456,358 L 456,357 L 454,355 Z" />
<path className="draw-path" d="M 75,343 L 75,351 L 74,352 L 74,360 L 73,361 L 73,369 L 72,370 L 72,376 L 71,377 L 71,383 L 70,384 L 70,387 L 69,388 L 69,391 L 68,392 L 68,395 L 67,396 L 67,397 L 66,398 L 66,399 L 65,400 L 66,401 L 67,400 L 68,400 L 69,399 L 69,398 L 70,397 L 70,395 L 71,394 L 71,390 L 72,389 L 72,385 L 73,384 L 73,378 L 74,377 L 74,370 L 75,369 L 75,356 L 76,355 L 76,344 Z" />
<path className="draw-path" d="M 389,340 L 388,341 L 386,341 L 385,342 L 383,342 L 382,343 L 381,343 L 380,344 L 378,344 L 377,345 L 376,345 L 375,346 L 374,346 L 373,347 L 372,347 L 371,348 L 370,348 L 369,349 L 367,349 L 366,350 L 364,350 L 363,351 L 360,351 L 359,352 L 357,352 L 355,354 L 354,354 L 353,355 L 351,355 L 350,356 L 349,356 L 348,357 L 347,357 L 346,358 L 344,358 L 343,359 L 341,359 L 340,360 L 337,360 L 336,361 L 334,361 L 333,362 L 330,362 L 329,363 L 326,363 L 325,364 L 322,364 L 321,365 L 317,365 L 316,366 L 217,366 L 218,367 L 219,367 L 220,368 L 221,368 L 222,369 L 228,369 L 229,370 L 276,370 L 277,369 L 323,369 L 324,368 L 326,368 L 327,367 L 328,367 L 329,366 L 331,366 L 332,365 L 333,365 L 334,364 L 336,364 L 337,363 L 338,363 L 339,362 L 341,362 L 342,361 L 343,361 L 344,360 L 346,360 L 347,359 L 348,359 L 349,358 L 351,358 L 352,357 L 353,357 L 354,356 L 356,356 L 357,355 L 358,355 L 359,354 L 361,354 L 362,353 L 363,353 L 364,352 L 366,352 L 367,351 L 369,351 L 370,350 L 371,350 L 372,349 L 374,349 L 375,348 L 376,348 L 377,347 L 379,347 L 380,346 L 381,346 L 382,345 L 384,345 L 385,344 L 387,344 L 388,343 L 389,343 L 390,342 L 391,342 L 392,341 L 393,341 L 394,340 Z" />
<path className="draw-path" d="M 199,339 L 198,340 L 196,340 L 195,341 L 194,341 L 193,342 L 192,342 L 190,344 L 198,344 L 199,345 L 201,345 L 202,346 L 203,346 L 205,348 L 206,348 L 207,349 L 208,349 L 210,351 L 211,351 L 214,354 L 215,354 L 217,356 L 218,356 L 220,358 L 253,358 L 253,357 L 250,357 L 249,356 L 240,356 L 239,355 L 229,355 L 228,354 L 221,354 L 220,353 L 219,353 L 218,352 L 217,352 L 214,349 L 213,349 L 209,345 L 208,345 L 205,342 L 204,342 L 203,341 L 202,341 L 201,340 L 200,340 Z" />
<path className="draw-path" d="M 418,335 L 417,336 L 415,336 L 414,337 L 413,337 L 405,345 L 405,347 L 402,350 L 402,356 L 400,358 L 400,361 L 399,362 L 399,368 L 401,366 L 401,365 L 402,364 L 402,363 L 403,362 L 403,361 L 404,360 L 404,358 L 405,357 L 405,356 L 406,355 L 406,354 L 408,352 L 408,351 L 409,350 L 410,350 L 410,348 L 411,347 L 411,346 L 412,345 L 412,344 L 417,339 L 417,338 L 419,336 L 419,335 Z" />
<path className="draw-path" d="M 144,324 L 142,326 L 142,328 L 141,329 L 141,330 L 140,331 L 140,332 L 139,333 L 139,335 L 138,336 L 138,337 L 137,338 L 137,339 L 136,340 L 136,341 L 135,342 L 135,343 L 133,345 L 133,346 L 132,347 L 132,348 L 131,349 L 131,350 L 130,351 L 130,352 L 129,353 L 129,354 L 128,355 L 128,356 L 127,357 L 127,358 L 125,360 L 125,361 L 124,362 L 124,363 L 123,364 L 123,365 L 122,366 L 122,367 L 121,368 L 121,369 L 120,370 L 120,371 L 119,372 L 119,373 L 118,374 L 118,375 L 117,376 L 117,377 L 116,378 L 116,379 L 115,380 L 115,381 L 114,382 L 114,383 L 113,384 L 113,385 L 112,386 L 112,388 L 111,389 L 111,390 L 110,391 L 110,392 L 109,393 L 109,395 L 108,396 L 108,398 L 110,400 L 114,400 L 115,401 L 116,400 L 121,400 L 122,399 L 123,399 L 125,397 L 126,397 L 130,393 L 132,393 L 133,394 L 134,394 L 138,398 L 138,399 L 140,399 L 141,400 L 154,400 L 155,401 L 165,401 L 166,400 L 170,400 L 164,394 L 165,393 L 165,392 L 166,391 L 166,390 L 167,389 L 167,387 L 168,386 L 168,385 L 169,384 L 169,382 L 170,381 L 170,378 L 169,378 L 167,380 L 167,381 L 166,382 L 166,383 L 165,384 L 165,385 L 164,386 L 164,388 L 163,389 L 163,392 L 162,393 L 162,394 L 159,397 L 155,397 L 154,398 L 152,398 L 151,397 L 147,397 L 146,396 L 144,396 L 143,395 L 141,395 L 140,394 L 139,394 L 138,393 L 137,393 L 136,392 L 135,392 L 134,391 L 131,391 L 130,390 L 129,390 L 128,391 L 127,391 L 124,394 L 123,394 L 121,396 L 116,396 L 115,395 L 115,392 L 116,391 L 116,389 L 117,388 L 117,387 L 118,386 L 118,385 L 119,384 L 119,383 L 120,382 L 120,381 L 121,380 L 121,377 L 122,376 L 122,375 L 123,374 L 124,374 L 124,371 L 125,370 L 126,370 L 126,369 L 128,367 L 128,362 L 130,360 L 130,359 L 132,357 L 132,355 L 134,353 L 134,352 L 135,351 L 135,348 L 136,347 L 137,347 L 137,346 L 139,344 L 139,343 L 141,341 L 141,340 L 142,339 L 142,338 L 143,337 L 143,336 L 147,332 L 151,332 L 152,333 L 153,333 L 155,335 L 156,334 L 157,334 L 158,335 L 158,336 L 159,337 L 160,337 L 162,339 L 163,339 L 165,341 L 166,341 L 168,343 L 169,343 L 170,344 L 171,344 L 173,346 L 174,346 L 175,347 L 176,347 L 177,348 L 178,348 L 180,350 L 181,350 L 183,352 L 184,352 L 186,354 L 187,354 L 188,355 L 189,355 L 190,356 L 191,356 L 193,358 L 194,358 L 196,360 L 197,360 L 201,364 L 202,363 L 207,368 L 208,368 L 209,369 L 212,369 L 213,370 L 214,370 L 215,371 L 216,371 L 219,374 L 218,375 L 222,375 L 223,376 L 224,376 L 225,377 L 227,377 L 228,378 L 229,378 L 230,379 L 231,379 L 232,380 L 235,380 L 237,382 L 237,384 L 238,384 L 239,383 L 241,383 L 242,384 L 243,384 L 244,385 L 246,383 L 246,382 L 245,381 L 244,381 L 243,380 L 241,380 L 240,379 L 238,379 L 237,378 L 236,378 L 235,377 L 233,377 L 232,376 L 230,376 L 229,375 L 228,375 L 227,374 L 226,374 L 225,373 L 223,373 L 222,372 L 221,372 L 220,371 L 219,371 L 217,369 L 216,369 L 215,368 L 214,368 L 212,366 L 211,366 L 208,363 L 207,363 L 204,360 L 203,360 L 199,356 L 198,356 L 196,354 L 195,354 L 193,352 L 192,352 L 190,350 L 189,350 L 187,348 L 186,348 L 184,346 L 183,346 L 182,345 L 181,345 L 179,343 L 178,343 L 177,342 L 176,342 L 174,340 L 173,340 L 172,339 L 171,339 L 169,337 L 168,337 L 167,336 L 166,336 L 164,334 L 163,334 L 162,333 L 161,333 L 159,331 L 158,331 L 157,330 L 156,330 L 155,329 L 154,329 L 152,327 L 151,327 L 150,326 L 149,326 L 148,325 L 146,325 L 145,324 Z" />
<path className="draw-path" d="M 293,315 L 293,316 L 290,319 L 287,319 L 286,320 L 284,320 L 283,321 L 282,321 L 282,322 L 280,324 L 284,324 L 285,323 L 287,323 L 289,321 L 290,321 L 294,317 L 294,315 Z" />
<path className="draw-path" d="M 159,313 L 158,314 L 144,314 L 143,315 L 141,315 L 137,319 L 137,320 L 135,322 L 135,323 L 134,324 L 134,325 L 133,326 L 133,328 L 134,328 L 138,324 L 138,322 L 139,321 L 142,321 L 143,320 L 161,320 L 162,321 L 169,321 L 170,320 L 180,320 L 181,321 L 181,322 L 178,325 L 178,326 L 179,326 L 180,327 L 187,327 L 188,328 L 198,328 L 199,329 L 212,329 L 213,330 L 222,330 L 223,331 L 230,331 L 231,332 L 235,332 L 236,331 L 237,331 L 240,328 L 239,327 L 236,327 L 235,326 L 228,326 L 227,325 L 221,325 L 220,324 L 215,324 L 214,323 L 210,323 L 209,322 L 204,322 L 203,321 L 199,321 L 198,320 L 195,320 L 194,319 L 190,319 L 189,318 L 186,318 L 185,317 L 183,317 L 182,316 L 179,316 L 178,315 L 176,315 L 175,314 L 162,314 L 161,313 Z" />
<path className="draw-path" d="M 220,308 L 220,309 L 222,311 L 222,312 L 225,315 L 226,315 L 226,313 L 225,312 L 225,311 L 223,309 L 222,309 L 221,308 Z" />
<path className="draw-path" d="M 104,308 L 103,309 L 103,312 L 102,313 L 102,316 L 101,317 L 101,321 L 100,322 L 100,325 L 99,326 L 99,329 L 98,330 L 98,334 L 97,335 L 97,338 L 96,339 L 96,343 L 95,344 L 95,347 L 94,348 L 94,353 L 93,354 L 93,360 L 92,361 L 92,364 L 91,365 L 91,367 L 90,368 L 90,370 L 89,371 L 89,373 L 88,374 L 88,376 L 87,377 L 87,379 L 86,380 L 86,382 L 85,383 L 85,385 L 84,386 L 84,388 L 83,389 L 83,392 L 80,395 L 79,395 L 76,398 L 75,398 L 73,400 L 74,401 L 85,401 L 86,400 L 88,400 L 89,399 L 89,398 L 90,397 L 90,395 L 91,394 L 91,392 L 92,391 L 93,392 L 93,395 L 94,396 L 94,398 L 95,399 L 96,399 L 97,400 L 98,400 L 98,398 L 97,397 L 97,391 L 96,390 L 96,387 L 95,386 L 95,384 L 94,383 L 94,382 L 93,381 L 93,370 L 94,369 L 94,364 L 95,363 L 95,360 L 96,359 L 96,355 L 97,354 L 97,350 L 98,349 L 98,346 L 99,345 L 99,341 L 100,340 L 100,336 L 101,335 L 101,330 L 102,329 L 102,324 L 103,323 L 103,316 L 104,315 Z" />
<path className="draw-path" d="M 391,303 L 390,304 L 386,304 L 385,305 L 383,305 L 382,306 L 381,306 L 379,308 L 378,308 L 372,314 L 372,315 L 371,316 L 370,316 L 369,317 L 368,317 L 367,318 L 366,318 L 365,319 L 363,319 L 362,320 L 361,320 L 360,321 L 358,321 L 357,322 L 355,322 L 353,320 L 353,319 L 351,317 L 351,316 L 350,315 L 350,317 L 351,318 L 351,320 L 352,321 L 352,322 L 353,323 L 354,323 L 355,324 L 359,324 L 360,323 L 363,323 L 364,322 L 366,322 L 367,321 L 368,321 L 369,320 L 370,320 L 374,316 L 374,315 L 377,312 L 378,312 L 379,311 L 380,311 L 381,310 L 382,310 L 383,309 L 384,309 L 386,307 L 386,306 L 388,304 L 390,304 L 391,305 L 392,305 L 395,308 L 395,309 L 396,310 L 396,311 L 398,313 L 399,313 L 400,314 L 397,311 L 397,310 L 396,309 L 396,307 L 397,306 L 399,306 L 402,309 L 403,308 L 402,307 L 402,306 L 400,304 L 397,304 L 396,303 Z" />
<path className="draw-path" d="M 377,288 L 372,293 L 371,293 L 368,296 L 367,296 L 364,299 L 363,299 L 360,302 L 359,302 L 355,306 L 356,305 L 357,305 L 358,304 L 359,304 L 361,302 L 362,302 L 365,299 L 366,299 L 369,296 L 370,296 L 377,289 Z" />
<path className="draw-path" d="M 392,281 L 392,285 L 391,286 L 391,289 L 390,290 L 390,291 L 388,293 L 389,294 L 390,294 L 391,293 L 392,293 L 393,292 L 395,292 L 396,291 L 397,291 L 398,292 L 399,292 L 400,293 L 401,293 L 402,294 L 403,294 L 404,295 L 403,296 L 402,296 L 402,298 L 403,298 L 407,302 L 408,302 L 410,304 L 411,304 L 412,305 L 414,305 L 415,306 L 416,306 L 417,307 L 416,308 L 413,308 L 412,307 L 407,307 L 406,306 L 405,306 L 408,309 L 409,309 L 410,310 L 412,310 L 413,311 L 415,311 L 421,317 L 423,315 L 424,315 L 426,317 L 426,318 L 427,319 L 426,320 L 425,320 L 425,323 L 426,324 L 426,325 L 427,326 L 427,329 L 426,330 L 423,330 L 422,329 L 420,329 L 419,328 L 418,329 L 417,329 L 417,330 L 416,331 L 415,331 L 418,331 L 419,332 L 428,332 L 429,333 L 433,333 L 434,334 L 437,334 L 438,335 L 440,335 L 441,336 L 443,336 L 444,337 L 445,337 L 446,338 L 447,338 L 448,339 L 449,339 L 450,340 L 451,340 L 452,341 L 453,341 L 454,342 L 456,342 L 457,343 L 458,343 L 459,344 L 461,344 L 462,345 L 464,345 L 465,346 L 466,346 L 475,355 L 475,356 L 479,360 L 479,362 L 478,363 L 477,362 L 476,362 L 474,360 L 473,360 L 472,359 L 471,359 L 469,357 L 468,357 L 467,356 L 466,356 L 464,354 L 463,354 L 462,353 L 461,353 L 460,352 L 458,352 L 457,351 L 456,351 L 455,350 L 454,350 L 453,349 L 451,349 L 450,348 L 449,348 L 448,347 L 446,347 L 445,346 L 442,346 L 441,345 L 438,345 L 437,344 L 428,344 L 427,345 L 430,345 L 431,346 L 433,346 L 434,347 L 436,347 L 438,349 L 438,350 L 437,351 L 425,351 L 424,352 L 421,352 L 419,354 L 419,358 L 418,359 L 415,359 L 414,360 L 413,360 L 412,361 L 411,361 L 409,363 L 408,363 L 407,364 L 407,366 L 409,366 L 410,365 L 413,365 L 414,364 L 416,364 L 417,363 L 419,363 L 420,362 L 422,362 L 423,361 L 424,361 L 425,360 L 427,360 L 428,359 L 429,359 L 430,358 L 432,358 L 433,357 L 434,357 L 435,356 L 437,356 L 438,355 L 440,355 L 441,354 L 444,354 L 445,353 L 450,353 L 451,352 L 454,352 L 455,353 L 459,353 L 460,354 L 461,354 L 462,355 L 463,355 L 466,358 L 467,358 L 471,362 L 472,362 L 473,363 L 474,363 L 475,364 L 476,364 L 481,369 L 481,370 L 482,371 L 482,373 L 483,374 L 483,376 L 484,377 L 484,380 L 484,366 L 483,365 L 483,363 L 482,362 L 482,360 L 480,358 L 480,357 L 478,355 L 478,354 L 476,352 L 476,351 L 465,340 L 464,340 L 462,338 L 461,338 L 459,336 L 458,336 L 455,333 L 454,333 L 453,332 L 452,332 L 451,331 L 450,331 L 448,329 L 447,329 L 446,328 L 445,328 L 444,327 L 443,327 L 442,326 L 441,326 L 439,324 L 438,324 L 435,321 L 434,321 L 432,319 L 432,318 L 429,315 L 429,314 L 424,309 L 423,309 L 422,308 L 419,308 L 418,307 L 418,306 L 415,303 L 414,303 L 411,300 L 410,300 L 405,295 L 405,294 L 399,288 L 399,287 L 395,283 L 394,283 Z" />
<path className="draw-path" d="M 93,275 L 93,276 L 92,277 L 92,279 L 91,280 L 91,291 L 90,292 L 90,311 L 91,312 L 91,314 L 92,314 L 92,284 L 93,283 Z" />
<path className="draw-path" d="M 215,263 L 221,269 L 222,269 L 227,274 L 228,274 L 231,277 L 232,277 L 234,279 L 235,279 L 237,281 L 237,282 L 240,285 L 242,285 L 240,283 L 240,282 L 235,277 L 234,277 L 229,272 L 228,272 L 225,269 L 224,269 L 221,266 L 220,266 L 218,264 L 217,264 L 216,263 Z" />
<path className="draw-path" d="M 266,249 L 265,250 L 265,251 L 266,252 L 266,255 L 267,256 L 267,257 L 268,258 L 268,259 L 269,260 L 269,254 L 268,253 L 268,252 L 267,251 L 267,250 Z" />
<path className="draw-path" d="M 132,248 L 136,252 L 137,252 L 138,253 L 139,253 L 140,254 L 142,254 L 146,258 L 147,258 L 149,260 L 150,260 L 153,263 L 154,263 L 156,265 L 157,265 L 158,266 L 159,266 L 161,268 L 162,268 L 164,270 L 165,270 L 166,271 L 167,271 L 168,272 L 169,272 L 170,273 L 171,273 L 172,274 L 173,274 L 175,276 L 176,276 L 177,277 L 178,277 L 180,279 L 181,279 L 184,282 L 185,282 L 186,283 L 188,283 L 189,284 L 190,284 L 191,285 L 193,285 L 194,286 L 195,286 L 196,287 L 197,287 L 198,288 L 201,288 L 202,289 L 205,289 L 208,292 L 209,292 L 210,293 L 211,293 L 212,294 L 216,294 L 217,295 L 221,295 L 222,296 L 225,296 L 226,297 L 229,297 L 230,298 L 233,298 L 234,299 L 237,299 L 238,300 L 242,300 L 243,301 L 246,301 L 247,302 L 252,302 L 253,303 L 263,303 L 263,302 L 262,302 L 261,301 L 259,301 L 258,300 L 255,300 L 254,299 L 251,299 L 250,298 L 248,298 L 247,297 L 245,297 L 244,296 L 241,296 L 240,295 L 235,295 L 234,294 L 224,294 L 223,293 L 224,292 L 224,291 L 222,293 L 221,293 L 220,294 L 218,292 L 218,291 L 216,289 L 214,289 L 210,285 L 209,285 L 207,283 L 206,283 L 205,282 L 204,282 L 204,287 L 203,288 L 202,287 L 201,287 L 199,285 L 198,285 L 197,284 L 196,284 L 192,280 L 190,280 L 189,279 L 188,279 L 187,278 L 186,278 L 185,277 L 184,277 L 182,275 L 181,275 L 180,274 L 179,274 L 178,273 L 177,273 L 175,271 L 174,271 L 173,270 L 172,270 L 171,269 L 170,269 L 169,268 L 168,268 L 164,264 L 163,264 L 162,263 L 161,263 L 160,262 L 158,262 L 157,261 L 156,261 L 155,260 L 154,260 L 153,259 L 152,259 L 151,258 L 151,257 L 150,256 L 149,256 L 147,254 L 146,254 L 144,252 L 143,252 L 142,251 L 141,251 L 140,250 L 139,250 L 138,249 L 136,249 L 135,248 Z" />
<path className="draw-path" d="M 323,234 L 323,236 L 322,237 L 322,241 L 323,242 L 323,244 L 324,243 L 324,242 L 325,241 L 325,236 Z" />
<path className="draw-path" d="M 262,229 L 262,231 L 261,232 L 261,237 L 260,238 L 260,260 L 261,260 L 261,259 L 262,258 L 262,250 L 263,249 L 263,247 L 266,244 L 265,243 L 265,242 L 264,241 L 265,240 L 266,240 L 265,239 L 265,238 L 264,237 L 264,235 L 263,234 L 263,229 Z" />
<path className="draw-path" d="M 168,228 L 168,229 L 169,230 L 169,231 L 174,236 L 174,237 L 176,239 L 177,239 L 178,240 L 178,238 L 177,237 L 177,236 L 175,234 L 175,233 L 170,228 Z" />
<path className="draw-path" d="M 330,224 L 330,226 L 331,227 L 331,228 L 332,229 L 332,230 L 335,233 L 336,233 L 335,232 L 335,230 L 334,229 L 334,228 L 331,225 L 331,224 Z" />
<path className="draw-path" d="M 324,224 L 323,225 L 323,228 L 325,230 L 325,228 L 326,227 L 326,226 L 327,225 L 327,224 Z" />
<path className="draw-path" d="M 284,219 L 281,222 L 281,223 L 279,225 L 279,226 L 278,227 L 278,228 L 281,228 L 282,227 L 281,226 L 281,224 L 282,223 L 282,222 L 284,220 Z" />
<path className="draw-path" d="M 341,217 L 340,218 L 340,221 L 341,222 L 341,223 L 342,224 L 342,225 L 342,218 Z" />
<path className="draw-path" d="M 281,213 L 280,214 L 278,214 L 277,215 L 273,215 L 273,216 L 275,218 L 277,218 L 278,219 L 280,219 L 280,216 L 281,215 L 288,215 L 289,214 L 290,214 L 290,213 Z" />
<path className="draw-path" d="M 355,211 L 357,213 L 357,214 L 356,215 L 356,216 L 355,217 L 356,218 L 357,218 L 358,217 L 358,216 L 359,215 L 359,213 L 357,211 Z" />
<path className="draw-path" d="M 295,205 L 294,206 L 294,208 L 296,208 L 297,209 L 298,209 L 302,213 L 303,212 L 304,212 L 305,213 L 306,213 L 307,212 L 307,211 L 308,210 L 308,209 L 309,208 L 304,208 L 303,207 L 303,206 L 302,205 L 300,207 L 299,206 L 298,206 L 297,205 Z" />
<path className="draw-path" d="M 347,202 L 347,204 L 346,205 L 346,206 L 345,207 L 344,207 L 344,209 L 345,210 L 346,209 L 346,208 L 347,207 Z" />
<path className="draw-path" d="M 283,176 L 282,177 L 282,186 L 283,187 L 283,190 L 284,191 L 284,192 L 286,192 L 289,189 L 291,189 L 292,188 L 299,188 L 300,189 L 303,189 L 304,190 L 306,190 L 307,191 L 312,191 L 315,194 L 317,194 L 318,195 L 321,195 L 322,196 L 325,196 L 326,197 L 328,197 L 329,198 L 329,199 L 330,200 L 330,203 L 332,203 L 333,202 L 334,202 L 335,201 L 337,201 L 338,200 L 343,200 L 343,199 L 342,198 L 331,198 L 329,196 L 328,196 L 327,195 L 326,195 L 325,194 L 323,194 L 322,193 L 320,193 L 319,192 L 318,192 L 317,191 L 316,191 L 315,190 L 313,190 L 312,189 L 311,189 L 310,188 L 309,188 L 308,187 L 306,187 L 305,186 L 300,186 L 299,185 L 291,185 L 290,184 L 286,184 L 285,183 L 284,183 L 283,182 L 283,181 L 284,180 L 284,176 Z" />
<path className="draw-path" d="M 325,171 L 328,174 L 327,175 L 324,175 L 324,178 L 325,179 L 325,180 L 327,178 L 327,177 L 328,176 L 330,178 L 330,181 L 331,181 L 332,180 L 335,180 L 336,181 L 335,182 L 333,182 L 334,183 L 334,184 L 340,190 L 341,190 L 342,191 L 342,190 L 343,189 L 344,190 L 344,191 L 345,192 L 345,194 L 346,195 L 346,197 L 348,199 L 349,198 L 349,194 L 347,192 L 347,191 L 346,190 L 346,189 L 341,184 L 341,183 L 340,183 L 334,177 L 333,177 L 332,176 L 331,176 L 330,175 L 330,174 L 329,173 L 329,172 L 328,171 Z" />
<path className="draw-path" d="M 317,168 L 315,170 L 312,170 L 312,171 L 310,173 L 307,173 L 306,174 L 306,175 L 307,175 L 308,176 L 317,176 L 318,177 L 319,177 L 321,179 L 322,178 L 322,176 L 321,175 L 321,174 L 320,173 L 320,168 Z" />
<path className="draw-path" d="M 301,168 L 300,169 L 299,169 L 298,170 L 298,171 L 301,171 L 302,170 L 303,170 L 304,169 L 302,169 Z" />
<path className="draw-path" d="M 320,156 L 319,157 L 318,157 L 315,160 L 320,160 L 322,162 L 323,162 L 324,163 L 326,163 L 327,162 L 328,162 L 329,161 L 329,160 L 327,158 L 326,158 L 325,157 L 323,157 L 322,156 Z" />
<path className="draw-path" d="M 329,147 L 329,150 L 331,152 L 331,153 L 334,156 L 335,156 L 338,159 L 337,158 L 337,157 L 336,156 L 336,155 L 334,153 L 334,152 Z" />
<path className="draw-path" d="M 346,126 L 345,127 L 343,127 L 342,128 L 342,129 L 343,129 L 344,130 L 345,130 L 346,131 L 348,131 L 349,132 L 349,131 L 347,129 L 347,128 L 348,127 L 351,127 L 352,128 L 353,128 L 356,131 L 355,132 L 354,132 L 354,133 L 355,134 L 356,134 L 357,135 L 358,135 L 359,136 L 360,136 L 361,137 L 365,137 L 366,136 L 366,135 L 367,134 L 368,134 L 374,140 L 377,140 L 377,139 L 376,138 L 375,138 L 372,135 L 371,135 L 369,133 L 368,133 L 367,132 L 366,132 L 365,131 L 364,131 L 363,130 L 362,130 L 361,129 L 360,129 L 359,128 L 358,128 L 357,127 L 354,127 L 353,126 Z" />
<path className="draw-path" d="M 336,126 Z" />
<path className="draw-path" d="M 385,121 L 385,122 L 384,123 L 385,124 L 385,125 L 387,127 L 387,128 L 388,128 L 390,130 L 391,130 L 390,129 L 390,128 L 389,127 L 389,126 L 388,125 L 388,124 L 386,122 L 386,121 Z" />
<path className="draw-path" d="M 347,120 L 346,121 L 345,121 L 344,122 L 343,122 L 342,123 L 341,123 L 340,124 L 339,124 L 338,125 L 341,125 L 342,124 L 346,124 L 347,123 L 348,123 L 349,122 L 350,122 L 350,121 L 349,120 Z" />
<path className="draw-path" d="M 289,110 L 289,113 L 290,113 L 292,115 L 292,116 L 291,117 L 289,117 L 288,118 L 287,118 L 289,118 L 290,119 L 295,119 L 296,118 L 299,118 L 303,114 L 303,113 L 302,112 L 301,112 L 300,111 L 296,111 L 295,110 Z" />
<path className="draw-path" d="M 319,106 L 318,107 L 317,107 L 309,115 L 308,115 L 307,116 L 306,116 L 304,118 L 304,119 L 303,120 L 303,121 L 288,136 L 293,136 L 294,137 L 294,138 L 292,140 L 287,140 L 287,141 L 288,142 L 288,144 L 289,145 L 289,146 L 290,147 L 290,148 L 291,149 L 291,150 L 292,151 L 292,153 L 293,154 L 293,155 L 294,156 L 294,158 L 295,159 L 293,161 L 289,161 L 288,162 L 287,162 L 286,163 L 285,163 L 280,168 L 279,168 L 278,169 L 277,169 L 276,170 L 276,171 L 275,172 L 276,173 L 277,173 L 278,172 L 280,172 L 281,171 L 282,171 L 283,170 L 285,170 L 286,169 L 287,169 L 288,168 L 289,169 L 290,169 L 291,170 L 292,170 L 293,169 L 295,169 L 299,165 L 299,164 L 300,163 L 300,161 L 299,160 L 299,159 L 297,157 L 297,156 L 296,155 L 296,154 L 295,153 L 295,148 L 297,146 L 297,145 L 298,144 L 299,144 L 300,143 L 301,144 L 301,145 L 300,146 L 299,146 L 299,149 L 300,150 L 300,152 L 301,153 L 301,154 L 303,156 L 303,157 L 308,162 L 309,162 L 311,164 L 309,162 L 309,161 L 307,159 L 307,158 L 305,156 L 305,155 L 304,154 L 304,152 L 303,151 L 303,146 L 304,145 L 304,143 L 306,141 L 306,140 L 308,138 L 308,137 L 310,135 L 310,134 L 311,133 L 311,132 L 313,130 L 313,129 L 314,128 L 314,127 L 315,126 L 315,125 L 316,124 L 316,123 L 317,122 L 317,121 L 318,120 L 318,119 L 319,118 L 319,116 L 320,115 L 320,114 L 321,113 L 321,111 L 322,110 L 322,108 L 321,107 L 321,106 Z" />
<path className="draw-path" d="M 343,105 L 340,108 L 340,109 L 347,109 L 348,110 L 350,110 L 351,111 L 353,111 L 354,112 L 355,112 L 356,113 L 357,113 L 358,114 L 360,114 L 361,115 L 362,115 L 363,116 L 364,116 L 365,117 L 366,117 L 367,118 L 369,118 L 370,119 L 371,119 L 372,120 L 373,120 L 374,121 L 376,121 L 377,122 L 378,122 L 379,123 L 380,123 L 381,122 L 381,118 L 380,118 L 380,119 L 379,120 L 378,120 L 377,119 L 377,116 L 376,116 L 375,117 L 374,117 L 373,116 L 374,115 L 370,111 L 370,113 L 371,114 L 371,116 L 370,117 L 369,116 L 368,116 L 367,115 L 367,113 L 366,112 L 365,112 L 364,111 L 363,111 L 362,110 L 361,110 L 360,109 L 359,109 L 358,108 L 357,108 L 356,107 L 353,107 L 352,106 L 347,106 L 346,105 Z" />
<path className="draw-path" d="M 285,101 L 284,102 L 283,102 L 282,103 L 281,103 L 279,105 L 278,105 L 275,108 L 275,109 L 274,110 L 274,112 L 275,112 L 276,113 L 275,114 L 275,115 L 276,116 L 276,118 L 278,120 L 280,120 L 280,115 L 281,114 L 281,112 L 282,111 L 281,110 L 281,109 L 283,107 L 284,107 L 285,106 L 286,106 L 287,105 L 288,105 L 288,104 L 286,104 L 285,103 L 286,102 L 287,102 L 288,101 Z" />
<path className="draw-path" d="M 320,38 L 320,39 L 321,40 L 321,41 L 320,42 L 318,42 L 317,41 L 317,42 L 318,43 L 321,43 L 322,44 L 325,44 L 326,45 L 327,45 L 329,47 L 330,47 L 331,48 L 334,48 L 334,46 L 333,45 L 332,45 L 331,44 L 331,41 L 328,44 L 326,42 L 326,41 L 327,40 L 327,38 L 326,38 L 324,40 L 323,40 L 321,38 Z" />
<path className="draw-path" d="M 397,26 L 395,28 L 395,29 L 396,30 L 396,31 L 397,31 L 397,29 L 398,28 L 398,27 L 399,26 Z" />
<path className="draw-path" d="M 407,24 L 407,26 L 406,27 L 404,27 L 403,26 L 402,26 L 406,30 L 406,31 L 407,32 L 407,33 L 408,34 L 408,40 L 407,41 L 406,41 L 405,40 L 405,34 L 404,34 L 403,33 L 400,33 L 400,34 L 399,35 L 399,36 L 398,37 L 397,36 L 397,35 L 396,34 L 395,35 L 394,35 L 393,36 L 393,38 L 394,39 L 397,36 L 399,38 L 401,38 L 402,39 L 402,40 L 403,41 L 402,42 L 401,42 L 401,44 L 404,47 L 411,47 L 413,45 L 413,44 L 414,43 L 412,41 L 412,29 L 411,28 L 411,27 L 410,26 L 410,25 L 409,25 L 408,24 Z" />
<path className="draw-path" d="M 375,24 L 375,25 L 376,26 L 377,26 L 380,29 L 381,29 L 382,30 L 384,30 L 387,33 L 387,32 L 383,28 L 382,28 L 381,27 L 380,27 L 379,26 L 378,26 L 377,25 L 376,25 Z" />
<path className="draw-path" d="M 348,21 L 347,22 L 348,23 L 348,24 L 349,25 L 348,26 L 347,26 L 346,25 L 345,25 L 345,28 L 346,28 L 349,31 L 350,31 L 355,36 L 354,37 L 352,37 L 351,38 L 349,38 L 350,38 L 351,39 L 352,38 L 356,38 L 357,39 L 356,40 L 354,40 L 353,41 L 351,41 L 350,42 L 347,42 L 346,41 L 344,41 L 343,40 L 341,40 L 340,39 L 339,39 L 338,38 L 337,38 L 336,37 L 336,36 L 335,35 L 335,33 L 333,31 L 332,31 L 330,33 L 330,36 L 332,36 L 336,40 L 336,41 L 337,41 L 338,42 L 342,42 L 343,43 L 345,43 L 346,44 L 347,44 L 348,45 L 350,45 L 351,44 L 352,44 L 354,42 L 355,43 L 356,43 L 357,44 L 356,45 L 355,45 L 354,46 L 352,46 L 351,47 L 350,47 L 349,48 L 345,48 L 347,50 L 349,50 L 350,49 L 351,49 L 352,48 L 354,48 L 355,47 L 365,47 L 366,46 L 372,46 L 373,45 L 373,42 L 372,41 L 372,40 L 371,39 L 371,38 L 370,37 L 370,36 L 369,35 L 369,33 L 368,32 L 368,28 L 363,28 L 362,29 L 362,33 L 363,34 L 363,35 L 364,36 L 364,37 L 368,41 L 371,41 L 372,42 L 372,43 L 370,45 L 365,45 L 364,44 L 362,44 L 361,43 L 359,43 L 358,42 L 360,40 L 362,40 L 362,39 L 361,39 L 360,38 L 359,39 L 357,39 L 356,38 L 356,35 L 355,34 L 355,33 L 354,32 L 354,31 L 353,30 L 353,29 L 352,28 L 353,27 L 353,24 L 351,22 L 350,22 L 349,21 Z" />
<path className="draw-path" d="M 340,21 L 338,23 L 337,23 L 336,24 L 335,24 L 332,27 L 331,27 L 330,28 L 337,28 L 338,27 L 342,27 L 342,21 Z" />
<path className="draw-path" d="M 360,14 L 362,16 L 361,17 L 360,17 L 359,18 L 359,20 L 358,21 L 357,21 L 357,23 L 359,23 L 361,21 L 362,21 L 363,22 L 363,23 L 364,23 L 364,19 L 363,18 L 363,16 L 361,14 Z" />
<path className="draw-path" d="M 337,12 L 336,13 L 334,13 L 333,14 L 334,15 L 339,15 L 340,16 L 340,17 L 338,19 L 339,19 L 340,18 L 341,18 L 343,16 L 347,16 L 348,15 L 351,15 L 352,16 L 353,16 L 356,19 L 355,18 L 355,17 L 353,15 L 353,14 L 352,13 L 346,13 L 345,12 Z" />
<path className="draw-path" d="M 322,11 L 321,12 L 320,12 L 319,13 L 318,13 L 318,15 L 317,16 L 317,17 L 318,18 L 318,20 L 317,21 L 317,22 L 314,25 L 314,27 L 313,28 L 314,29 L 314,30 L 315,31 L 319,31 L 322,28 L 321,27 L 320,28 L 318,28 L 316,30 L 315,30 L 314,29 L 319,24 L 320,24 L 322,22 L 322,21 L 321,20 L 321,19 L 319,17 L 319,16 L 318,15 L 319,14 L 323,14 L 324,13 L 324,11 Z" />
<path className="draw-path" d="M 341,2 L 340,3 L 334,3 L 333,4 L 320,4 L 319,5 L 316,5 L 315,6 L 314,6 L 312,8 L 311,8 L 309,10 L 301,10 L 298,13 L 298,14 L 297,15 L 297,17 L 296,18 L 296,20 L 295,21 L 295,22 L 294,23 L 294,24 L 293,25 L 293,26 L 291,28 L 291,29 L 290,30 L 290,33 L 289,34 L 289,39 L 288,40 L 288,43 L 287,44 L 287,45 L 286,46 L 286,47 L 285,48 L 285,49 L 283,51 L 283,52 L 281,54 L 281,55 L 279,57 L 279,58 L 278,59 L 278,60 L 277,61 L 277,62 L 275,64 L 275,65 L 274,66 L 274,68 L 273,69 L 273,70 L 272,71 L 272,72 L 271,73 L 271,75 L 270,76 L 270,78 L 269,79 L 269,82 L 268,83 L 268,86 L 267,87 L 267,91 L 266,92 L 266,96 L 265,97 L 265,100 L 264,101 L 264,105 L 263,106 L 263,109 L 262,110 L 262,113 L 260,115 L 257,112 L 256,112 L 254,110 L 251,110 L 251,111 L 250,112 L 250,116 L 249,117 L 249,124 L 248,125 L 248,158 L 249,159 L 249,165 L 250,166 L 250,167 L 251,168 L 251,171 L 252,172 L 252,178 L 253,179 L 253,195 L 254,196 L 254,207 L 255,208 L 255,210 L 254,211 L 254,214 L 251,217 L 236,217 L 235,216 L 228,216 L 227,215 L 221,215 L 220,214 L 214,214 L 213,213 L 207,213 L 206,212 L 201,212 L 200,211 L 194,211 L 193,210 L 189,210 L 188,209 L 182,209 L 181,208 L 166,208 L 165,209 L 160,209 L 159,210 L 154,210 L 153,211 L 148,211 L 147,212 L 143,212 L 142,213 L 140,213 L 138,215 L 137,215 L 135,217 L 134,217 L 131,220 L 130,220 L 126,224 L 125,224 L 109,240 L 109,241 L 103,247 L 103,248 L 99,252 L 99,253 L 97,255 L 97,256 L 94,259 L 94,260 L 92,262 L 92,263 L 85,270 L 85,271 L 82,274 L 82,275 L 80,277 L 80,278 L 77,281 L 77,282 L 73,286 L 73,287 L 69,291 L 69,292 L 60,301 L 60,302 L 48,314 L 48,315 L 41,322 L 41,323 L 36,328 L 36,329 L 33,332 L 33,333 L 30,336 L 30,337 L 28,339 L 28,340 L 27,341 L 27,342 L 25,344 L 25,345 L 24,346 L 24,347 L 22,349 L 22,350 L 21,351 L 21,352 L 19,354 L 19,355 L 16,358 L 16,359 L 8,367 L 8,368 L 7,369 L 7,370 L 6,371 L 6,373 L 5,374 L 5,380 L 4,381 L 4,386 L 3,387 L 3,389 L 2,390 L 2,392 L 1,393 L 1,399 L 3,401 L 4,401 L 5,402 L 6,401 L 5,400 L 5,399 L 2,396 L 2,393 L 6,389 L 6,388 L 7,387 L 7,386 L 8,385 L 8,384 L 9,383 L 10,384 L 10,389 L 11,390 L 11,398 L 12,399 L 12,400 L 13,400 L 14,401 L 15,400 L 15,397 L 14,396 L 14,393 L 13,392 L 13,388 L 12,387 L 12,379 L 11,378 L 11,371 L 10,370 L 10,367 L 11,366 L 12,367 L 12,368 L 13,369 L 13,376 L 14,377 L 14,376 L 15,375 L 15,371 L 16,370 L 16,368 L 17,367 L 17,366 L 18,365 L 18,364 L 19,363 L 19,362 L 20,361 L 20,360 L 21,359 L 21,358 L 22,357 L 22,356 L 24,354 L 24,353 L 25,352 L 25,351 L 27,349 L 27,348 L 28,347 L 28,346 L 30,344 L 30,343 L 31,342 L 31,340 L 33,338 L 33,337 L 40,330 L 40,329 L 44,325 L 44,324 L 48,320 L 48,319 L 51,316 L 51,315 L 55,311 L 55,310 L 60,305 L 61,306 L 61,307 L 60,308 L 60,309 L 59,310 L 59,311 L 58,312 L 58,313 L 57,314 L 57,315 L 56,316 L 56,317 L 55,318 L 55,319 L 53,321 L 53,322 L 52,323 L 52,324 L 50,326 L 50,327 L 48,329 L 48,330 L 46,332 L 46,333 L 44,335 L 44,336 L 41,339 L 41,340 L 39,342 L 39,343 L 37,345 L 37,346 L 36,347 L 36,348 L 34,350 L 34,351 L 33,352 L 33,353 L 32,354 L 32,355 L 31,356 L 31,357 L 30,358 L 30,359 L 29,360 L 29,361 L 28,362 L 28,363 L 27,364 L 27,365 L 26,366 L 26,368 L 25,369 L 25,371 L 24,372 L 24,377 L 24,376 L 26,374 L 26,373 L 27,372 L 27,368 L 29,366 L 29,365 L 30,364 L 30,363 L 31,362 L 31,361 L 32,360 L 32,358 L 33,357 L 33,355 L 34,354 L 34,353 L 35,352 L 35,351 L 38,348 L 39,349 L 39,350 L 38,351 L 38,352 L 37,353 L 37,355 L 40,352 L 40,351 L 41,350 L 41,349 L 42,348 L 42,347 L 43,346 L 43,345 L 44,344 L 44,342 L 45,341 L 45,339 L 46,338 L 47,339 L 47,344 L 46,345 L 46,347 L 45,348 L 45,351 L 44,352 L 44,353 L 43,354 L 43,357 L 42,358 L 42,360 L 41,361 L 41,362 L 40,363 L 40,365 L 39,366 L 39,368 L 38,369 L 38,371 L 37,372 L 37,375 L 36,376 L 37,377 L 37,376 L 38,375 L 38,374 L 39,373 L 39,372 L 40,371 L 40,369 L 41,368 L 41,367 L 42,366 L 42,364 L 43,363 L 43,361 L 44,360 L 44,357 L 45,356 L 45,354 L 46,353 L 46,351 L 47,350 L 47,349 L 48,348 L 48,346 L 49,345 L 49,343 L 50,342 L 50,340 L 51,339 L 51,338 L 52,337 L 52,335 L 53,334 L 53,333 L 54,332 L 54,330 L 55,329 L 55,328 L 56,327 L 56,326 L 57,325 L 57,323 L 58,322 L 58,321 L 59,320 L 59,319 L 60,318 L 60,317 L 61,316 L 61,315 L 62,314 L 62,313 L 63,312 L 63,311 L 64,310 L 64,309 L 65,308 L 65,307 L 66,306 L 66,305 L 67,304 L 67,303 L 68,302 L 68,301 L 70,299 L 70,298 L 71,297 L 71,296 L 72,295 L 72,294 L 74,292 L 74,291 L 75,290 L 75,289 L 77,287 L 77,286 L 78,285 L 78,284 L 80,282 L 80,281 L 81,280 L 82,280 L 83,281 L 82,282 L 82,285 L 81,286 L 81,289 L 80,290 L 80,292 L 79,293 L 79,295 L 78,296 L 78,298 L 77,299 L 77,301 L 76,302 L 76,303 L 75,304 L 75,306 L 74,307 L 74,309 L 73,310 L 73,311 L 72,312 L 72,314 L 71,315 L 71,316 L 70,317 L 70,318 L 69,319 L 69,321 L 68,322 L 68,323 L 67,324 L 67,326 L 66,327 L 66,329 L 65,330 L 68,327 L 68,326 L 69,325 L 69,324 L 71,322 L 71,321 L 72,320 L 72,319 L 73,318 L 73,317 L 74,316 L 74,313 L 75,312 L 75,310 L 76,309 L 78,311 L 78,317 L 77,318 L 77,327 L 77,323 L 78,322 L 78,315 L 79,314 L 79,308 L 80,307 L 80,302 L 81,301 L 81,297 L 82,296 L 82,293 L 83,292 L 83,289 L 84,288 L 84,286 L 85,285 L 85,282 L 86,281 L 86,280 L 87,279 L 87,277 L 88,276 L 88,275 L 89,274 L 89,273 L 90,272 L 90,271 L 91,270 L 91,269 L 93,267 L 93,266 L 95,264 L 96,265 L 96,267 L 95,268 L 95,272 L 95,270 L 96,269 L 96,268 L 97,267 L 97,265 L 98,264 L 98,263 L 99,262 L 99,261 L 101,259 L 101,258 L 105,254 L 105,253 L 114,244 L 114,243 L 134,223 L 135,223 L 138,220 L 139,220 L 140,219 L 141,219 L 142,218 L 145,218 L 146,219 L 146,220 L 139,227 L 139,228 L 137,230 L 137,231 L 136,232 L 136,233 L 134,235 L 134,236 L 132,238 L 132,239 L 130,241 L 130,242 L 122,250 L 122,251 L 121,252 L 121,254 L 120,255 L 120,256 L 119,257 L 119,258 L 117,260 L 117,261 L 113,265 L 113,266 L 112,267 L 112,268 L 111,269 L 111,272 L 110,273 L 110,275 L 109,276 L 109,277 L 108,278 L 108,279 L 107,280 L 107,282 L 106,283 L 106,287 L 107,286 L 107,285 L 108,284 L 108,282 L 109,281 L 109,280 L 110,279 L 110,278 L 111,277 L 111,276 L 112,275 L 112,274 L 113,273 L 113,272 L 114,271 L 114,270 L 115,269 L 115,268 L 117,266 L 117,265 L 119,263 L 119,262 L 120,261 L 120,260 L 122,258 L 122,256 L 123,255 L 123,253 L 125,251 L 125,250 L 129,246 L 129,245 L 132,242 L 132,241 L 134,239 L 134,238 L 136,236 L 136,235 L 139,232 L 139,231 L 142,228 L 142,227 L 155,214 L 158,214 L 159,215 L 160,215 L 163,218 L 164,218 L 164,216 L 165,215 L 166,215 L 167,214 L 181,214 L 182,215 L 187,215 L 188,216 L 192,216 L 193,217 L 198,217 L 199,218 L 204,218 L 205,219 L 210,219 L 211,220 L 217,220 L 218,221 L 223,221 L 224,222 L 227,222 L 228,223 L 231,223 L 232,224 L 233,224 L 235,226 L 239,226 L 240,225 L 238,223 L 239,222 L 244,222 L 245,223 L 245,224 L 246,225 L 246,241 L 245,242 L 245,248 L 244,249 L 244,253 L 243,254 L 243,257 L 242,258 L 241,258 L 239,256 L 239,255 L 237,253 L 237,252 L 236,251 L 235,251 L 235,252 L 236,253 L 236,254 L 237,255 L 237,256 L 238,257 L 238,258 L 239,259 L 239,260 L 240,261 L 240,262 L 242,264 L 242,265 L 243,266 L 243,267 L 245,269 L 245,270 L 246,271 L 246,272 L 247,273 L 247,274 L 248,275 L 248,276 L 249,277 L 249,278 L 251,280 L 251,281 L 252,281 L 255,284 L 256,284 L 258,286 L 259,286 L 261,288 L 261,289 L 263,291 L 266,291 L 270,295 L 271,295 L 272,296 L 273,296 L 274,297 L 276,297 L 277,298 L 279,298 L 280,299 L 281,299 L 283,301 L 284,301 L 285,302 L 288,302 L 289,303 L 293,303 L 294,304 L 300,304 L 301,305 L 316,305 L 317,306 L 329,306 L 330,305 L 339,305 L 346,312 L 348,312 L 348,311 L 347,310 L 347,308 L 346,307 L 346,306 L 345,305 L 345,304 L 344,303 L 344,299 L 345,298 L 347,298 L 348,297 L 353,297 L 357,293 L 358,293 L 364,287 L 364,286 L 372,278 L 372,277 L 374,275 L 374,274 L 376,272 L 376,271 L 379,268 L 381,270 L 381,271 L 382,272 L 382,275 L 383,275 L 384,276 L 384,277 L 383,278 L 383,280 L 382,281 L 382,282 L 381,283 L 381,285 L 380,286 L 380,290 L 381,291 L 382,291 L 383,290 L 383,286 L 384,285 L 385,285 L 386,284 L 387,284 L 389,282 L 389,281 L 390,280 L 390,277 L 389,276 L 389,275 L 388,274 L 388,273 L 385,270 L 385,269 L 380,264 L 380,263 L 374,257 L 374,256 L 369,251 L 369,249 L 370,248 L 370,244 L 371,243 L 371,239 L 372,238 L 372,233 L 371,234 L 371,235 L 369,237 L 369,238 L 368,239 L 368,240 L 367,241 L 367,250 L 368,251 L 368,253 L 369,254 L 369,255 L 370,256 L 370,257 L 373,260 L 373,261 L 374,262 L 374,265 L 375,266 L 375,267 L 374,268 L 374,271 L 373,272 L 373,273 L 371,275 L 371,276 L 368,279 L 368,280 L 360,288 L 359,288 L 356,291 L 355,291 L 353,293 L 352,293 L 350,295 L 349,295 L 348,296 L 347,296 L 346,297 L 345,297 L 344,298 L 342,298 L 341,299 L 338,299 L 337,300 L 334,300 L 333,301 L 328,301 L 327,302 L 319,302 L 318,303 L 312,303 L 311,302 L 305,302 L 304,301 L 300,301 L 299,300 L 296,300 L 295,299 L 293,299 L 292,298 L 289,298 L 288,297 L 287,297 L 286,296 L 284,296 L 283,295 L 282,295 L 281,294 L 279,294 L 278,293 L 277,293 L 276,292 L 275,292 L 274,291 L 273,291 L 272,290 L 271,290 L 270,289 L 269,289 L 267,287 L 266,287 L 264,285 L 263,285 L 261,283 L 260,283 L 256,279 L 255,279 L 251,275 L 251,274 L 250,273 L 250,272 L 249,271 L 249,266 L 248,265 L 248,246 L 249,245 L 249,239 L 250,238 L 250,234 L 251,233 L 251,229 L 252,228 L 252,226 L 253,225 L 253,223 L 254,222 L 254,221 L 255,220 L 255,219 L 259,215 L 260,215 L 261,216 L 261,217 L 262,218 L 263,218 L 263,215 L 264,214 L 265,214 L 266,215 L 266,217 L 267,216 L 268,216 L 269,217 L 269,219 L 270,220 L 270,221 L 269,222 L 268,222 L 267,223 L 266,223 L 265,222 L 265,220 L 264,220 L 263,221 L 262,221 L 262,224 L 264,226 L 264,227 L 267,230 L 267,231 L 268,232 L 268,234 L 270,236 L 270,237 L 275,242 L 276,242 L 280,246 L 281,246 L 283,248 L 284,248 L 285,249 L 286,249 L 287,250 L 289,250 L 290,251 L 292,251 L 293,252 L 295,252 L 296,253 L 297,253 L 298,254 L 300,254 L 301,255 L 302,255 L 303,256 L 307,256 L 308,257 L 313,257 L 314,258 L 324,258 L 325,257 L 327,257 L 328,256 L 330,256 L 331,255 L 332,255 L 333,254 L 334,254 L 336,252 L 338,252 L 340,250 L 341,250 L 342,249 L 343,249 L 344,248 L 345,248 L 347,246 L 348,246 L 349,245 L 350,245 L 351,244 L 352,244 L 354,242 L 355,242 L 357,240 L 358,240 L 361,237 L 362,237 L 365,234 L 366,234 L 369,231 L 370,231 L 371,230 L 372,230 L 372,229 L 374,227 L 374,226 L 375,225 L 375,224 L 376,223 L 376,222 L 377,221 L 377,220 L 378,219 L 378,218 L 379,217 L 379,216 L 380,215 L 380,214 L 383,211 L 384,211 L 385,210 L 387,210 L 388,209 L 389,209 L 390,208 L 391,208 L 393,206 L 394,206 L 406,194 L 406,193 L 408,191 L 408,190 L 409,189 L 409,187 L 410,186 L 410,185 L 411,184 L 411,183 L 414,180 L 414,176 L 415,175 L 415,173 L 416,172 L 416,170 L 417,169 L 417,166 L 418,165 L 418,156 L 417,155 L 414,155 L 413,154 L 410,154 L 409,153 L 408,153 L 407,152 L 405,152 L 405,154 L 407,156 L 408,156 L 409,157 L 414,157 L 416,159 L 416,162 L 415,163 L 415,166 L 414,167 L 414,169 L 413,170 L 413,172 L 412,173 L 412,175 L 411,176 L 411,178 L 410,179 L 410,181 L 409,182 L 409,183 L 408,184 L 408,185 L 406,187 L 404,185 L 403,185 L 401,187 L 396,187 L 395,188 L 394,188 L 393,189 L 393,190 L 394,190 L 395,191 L 404,191 L 405,192 L 402,195 L 401,195 L 400,196 L 399,196 L 398,197 L 398,199 L 395,202 L 394,202 L 393,203 L 392,203 L 392,204 L 391,205 L 391,206 L 390,207 L 389,207 L 388,208 L 386,208 L 385,209 L 384,209 L 383,208 L 383,203 L 384,202 L 384,200 L 385,199 L 385,197 L 386,196 L 386,195 L 387,194 L 387,193 L 388,192 L 388,191 L 389,190 L 389,189 L 390,188 L 390,187 L 391,186 L 391,184 L 392,183 L 392,182 L 393,181 L 393,180 L 394,179 L 394,177 L 395,176 L 395,175 L 396,174 L 396,172 L 397,171 L 397,169 L 398,168 L 398,166 L 399,165 L 399,162 L 400,161 L 400,158 L 401,157 L 401,155 L 402,154 L 402,153 L 403,152 L 403,151 L 405,149 L 405,148 L 406,147 L 406,146 L 407,145 L 407,144 L 408,143 L 408,142 L 409,141 L 409,139 L 410,138 L 410,137 L 411,136 L 411,134 L 412,133 L 412,131 L 413,130 L 413,128 L 414,127 L 414,125 L 415,124 L 415,121 L 416,120 L 416,116 L 417,115 L 417,113 L 418,112 L 418,110 L 419,109 L 419,108 L 420,107 L 420,105 L 421,104 L 421,103 L 422,102 L 422,100 L 423,99 L 423,97 L 424,96 L 424,95 L 425,94 L 425,91 L 426,90 L 426,88 L 427,87 L 427,83 L 428,82 L 428,74 L 427,73 L 427,71 L 426,70 L 425,70 L 421,66 L 420,66 L 414,60 L 414,59 L 413,58 L 413,55 L 412,54 L 412,52 L 411,52 L 410,53 L 410,64 L 409,65 L 409,67 L 413,67 L 414,68 L 414,71 L 415,72 L 415,73 L 418,73 L 419,74 L 419,75 L 420,75 L 421,76 L 422,76 L 423,77 L 423,85 L 422,86 L 422,87 L 421,88 L 421,94 L 419,96 L 416,93 L 416,89 L 419,86 L 419,82 L 418,81 L 418,79 L 417,78 L 417,77 L 416,76 L 415,76 L 414,75 L 412,75 L 411,76 L 409,74 L 409,72 L 406,69 L 406,68 L 405,67 L 405,66 L 404,65 L 404,62 L 403,62 L 400,59 L 400,58 L 399,57 L 399,56 L 398,55 L 398,54 L 396,52 L 396,51 L 394,49 L 392,49 L 391,48 L 391,45 L 389,45 L 386,42 L 386,41 L 385,40 L 385,39 L 384,38 L 384,37 L 382,39 L 381,39 L 378,36 L 378,35 L 376,33 L 376,32 L 373,29 L 372,29 L 372,30 L 374,32 L 374,33 L 376,35 L 376,39 L 378,41 L 378,42 L 383,47 L 384,47 L 385,48 L 386,48 L 392,54 L 392,55 L 399,62 L 399,63 L 402,66 L 402,67 L 403,68 L 403,69 L 405,71 L 405,72 L 406,73 L 406,74 L 407,75 L 407,76 L 408,77 L 408,78 L 409,79 L 409,81 L 410,82 L 410,90 L 411,90 L 412,91 L 412,95 L 413,96 L 413,109 L 412,110 L 412,119 L 411,120 L 411,124 L 410,125 L 410,127 L 409,128 L 409,130 L 408,131 L 407,131 L 407,133 L 408,134 L 408,135 L 407,136 L 407,138 L 404,141 L 403,141 L 403,142 L 402,143 L 402,145 L 401,146 L 401,148 L 400,149 L 400,153 L 399,154 L 399,157 L 398,158 L 398,161 L 397,162 L 397,164 L 396,165 L 396,167 L 395,168 L 395,170 L 394,171 L 394,173 L 393,174 L 393,175 L 392,176 L 392,177 L 391,178 L 391,179 L 390,180 L 390,182 L 388,184 L 388,185 L 387,186 L 385,186 L 385,187 L 384,188 L 384,189 L 383,190 L 383,192 L 382,193 L 382,197 L 381,198 L 381,201 L 380,202 L 380,204 L 379,205 L 379,206 L 378,207 L 378,208 L 377,209 L 377,210 L 374,213 L 374,214 L 373,215 L 373,216 L 374,217 L 374,218 L 371,221 L 371,222 L 368,225 L 368,226 L 366,228 L 364,228 L 364,231 L 363,232 L 361,232 L 359,230 L 359,231 L 360,232 L 360,234 L 359,235 L 357,235 L 347,245 L 346,244 L 346,241 L 345,242 L 345,243 L 343,245 L 342,245 L 339,248 L 338,248 L 337,249 L 336,249 L 335,250 L 331,250 L 330,249 L 330,247 L 331,246 L 331,238 L 330,239 L 330,245 L 329,246 L 329,248 L 328,249 L 328,250 L 324,254 L 321,254 L 320,255 L 311,255 L 310,254 L 310,253 L 304,253 L 300,249 L 300,248 L 298,246 L 297,246 L 296,245 L 294,245 L 294,246 L 295,247 L 294,248 L 289,248 L 288,247 L 285,247 L 283,245 L 283,240 L 281,240 L 279,242 L 278,241 L 278,238 L 280,236 L 280,235 L 279,236 L 278,236 L 277,237 L 273,237 L 271,235 L 271,234 L 272,233 L 273,233 L 275,231 L 275,229 L 274,230 L 271,230 L 270,229 L 270,228 L 269,229 L 267,229 L 266,228 L 266,226 L 268,224 L 270,224 L 271,223 L 272,223 L 273,222 L 273,220 L 272,219 L 271,219 L 270,218 L 270,213 L 271,212 L 271,211 L 275,207 L 274,207 L 273,208 L 272,208 L 267,213 L 266,212 L 266,211 L 265,210 L 265,209 L 267,207 L 266,206 L 266,205 L 267,204 L 268,205 L 269,204 L 269,202 L 268,201 L 267,201 L 266,202 L 266,203 L 263,206 L 262,205 L 262,203 L 264,201 L 264,200 L 265,199 L 265,198 L 266,197 L 266,195 L 267,194 L 267,191 L 266,192 L 266,193 L 264,195 L 264,196 L 263,197 L 263,198 L 262,199 L 260,197 L 260,196 L 261,195 L 261,192 L 263,190 L 264,190 L 264,189 L 265,188 L 265,187 L 266,186 L 266,184 L 267,183 L 267,181 L 268,180 L 268,179 L 269,178 L 269,177 L 270,176 L 270,175 L 271,174 L 271,173 L 272,172 L 272,171 L 276,167 L 277,167 L 278,166 L 278,164 L 275,164 L 269,170 L 269,171 L 268,172 L 268,173 L 267,174 L 267,176 L 266,177 L 266,179 L 264,181 L 263,181 L 262,182 L 260,182 L 259,181 L 261,179 L 261,178 L 263,176 L 263,174 L 264,173 L 264,168 L 263,168 L 262,167 L 262,158 L 261,159 L 261,162 L 260,163 L 260,164 L 261,165 L 261,169 L 260,170 L 260,171 L 259,172 L 258,171 L 258,169 L 257,168 L 257,162 L 256,161 L 256,148 L 257,147 L 257,142 L 258,141 L 258,138 L 259,137 L 259,136 L 260,135 L 260,133 L 261,132 L 261,131 L 262,130 L 262,129 L 263,128 L 263,127 L 264,126 L 264,125 L 265,124 L 265,123 L 266,122 L 266,114 L 267,113 L 267,111 L 268,110 L 268,108 L 269,107 L 269,105 L 270,104 L 270,103 L 271,102 L 271,101 L 272,100 L 272,99 L 274,97 L 275,97 L 276,96 L 287,96 L 288,97 L 294,97 L 295,96 L 295,95 L 296,94 L 298,94 L 300,96 L 301,96 L 302,97 L 304,97 L 305,98 L 312,98 L 314,100 L 314,97 L 312,95 L 311,95 L 310,94 L 309,94 L 308,93 L 305,93 L 304,92 L 283,92 L 281,90 L 281,89 L 282,88 L 281,88 L 280,89 L 279,89 L 278,90 L 277,90 L 276,91 L 274,91 L 273,90 L 273,89 L 276,86 L 277,86 L 279,84 L 280,84 L 280,83 L 283,80 L 283,79 L 284,78 L 284,76 L 283,76 L 281,78 L 280,78 L 279,79 L 279,80 L 275,84 L 274,83 L 274,81 L 277,78 L 277,77 L 276,76 L 276,74 L 277,73 L 277,72 L 279,70 L 279,69 L 281,67 L 281,66 L 282,65 L 282,64 L 283,63 L 283,62 L 285,60 L 285,59 L 288,56 L 288,55 L 290,53 L 290,52 L 291,51 L 289,49 L 292,46 L 293,46 L 294,45 L 297,45 L 297,44 L 299,42 L 302,42 L 302,39 L 299,36 L 299,35 L 298,34 L 298,25 L 299,24 L 300,25 L 301,24 L 301,20 L 302,19 L 303,19 L 305,21 L 305,26 L 304,27 L 304,30 L 303,31 L 303,33 L 304,34 L 304,37 L 305,38 L 305,39 L 306,39 L 307,40 L 312,40 L 312,38 L 311,37 L 309,37 L 308,36 L 308,24 L 307,23 L 307,22 L 309,20 L 309,18 L 306,15 L 308,13 L 309,13 L 310,14 L 311,14 L 316,9 L 317,9 L 318,10 L 319,9 L 319,8 L 320,7 L 330,7 L 331,8 L 329,10 L 328,10 L 328,11 L 327,12 L 327,15 L 328,15 L 329,14 L 330,14 L 335,9 L 335,7 L 336,6 L 343,6 L 344,7 L 346,7 L 347,8 L 348,8 L 349,9 L 351,9 L 352,10 L 353,9 L 357,9 L 358,10 L 360,10 L 361,11 L 362,11 L 363,12 L 365,12 L 366,11 L 369,11 L 370,12 L 369,13 L 369,14 L 368,15 L 368,20 L 369,21 L 370,21 L 370,16 L 371,15 L 372,15 L 373,16 L 373,17 L 374,18 L 374,17 L 375,16 L 375,15 L 376,14 L 376,12 L 378,10 L 379,11 L 381,11 L 382,10 L 383,10 L 384,11 L 384,13 L 383,14 L 383,16 L 382,17 L 382,18 L 379,21 L 383,25 L 385,25 L 385,24 L 384,23 L 384,22 L 383,21 L 383,19 L 384,18 L 385,18 L 388,21 L 389,21 L 389,13 L 391,11 L 392,11 L 393,12 L 394,12 L 395,13 L 397,13 L 400,16 L 400,18 L 399,19 L 396,19 L 395,20 L 394,20 L 393,21 L 393,22 L 392,23 L 392,24 L 391,25 L 391,28 L 392,28 L 393,27 L 393,26 L 396,23 L 405,23 L 406,22 L 406,21 L 405,20 L 405,18 L 404,17 L 404,15 L 403,14 L 403,13 L 401,11 L 401,10 L 400,9 L 399,9 L 398,8 L 397,8 L 396,7 L 380,7 L 379,6 L 376,6 L 375,5 L 374,5 L 373,4 L 371,4 L 370,5 L 370,6 L 369,7 L 368,7 L 367,6 L 367,3 L 366,3 L 365,2 L 362,2 L 361,3 L 359,3 L 358,4 L 357,4 L 357,5 L 355,7 L 354,6 L 354,4 L 353,3 L 351,3 L 350,2 Z" />
</svg>